<svg xmlns="http://www.w3.org/2000/svg" width="141" height="39" viewBox="0 0 141 39" fill="none"><path d="M10.0633 32.0547C8.757 32.0547 7.48319 31.8073 6.27724 31.32C5.02795 30.8147 3.90756 30.0732 2.94742 29.1158C1.98728 28.1584 1.24359 27.0412 0.736855 25.7956C0.247805 24.5931 0 23.3229 0 22.0204C0 20.7178 0.24809 19.4477 0.736855 18.2452C1.2433 16.9995 1.98728 15.8823 2.94742 14.925L7.73099 10.1552C8.30017 9.58763 9.22267 9.58763 9.79156 10.1552C10.3607 10.7224 10.3607 11.6426 9.79156 12.2098L5.00799 16.9799C3.65776 18.3262 2.91406 20.1164 2.91406 22.0204C2.91406 23.9243 3.65776 25.7145 5.00799 27.0609C6.35823 28.4072 8.1536 29.1488 10.063 29.1488C11.9725 29.1488 13.7678 28.4072 15.1181 27.0609L19.9017 22.2908C20.4708 21.7232 21.3933 21.7235 21.9622 22.2908C22.5311 22.8583 22.5311 23.7782 21.9622 24.3454L17.1787 29.1155C16.2185 30.0729 15.0981 30.8144 13.8488 31.3197C12.6429 31.8073 11.3696 32.0547 10.0633 32.0547Z" fill="#5B36C3"></path><path d="M22.388 35.456C22.015 35.456 21.6423 35.3141 21.3577 35.0303C20.7885 34.4631 20.7885 33.543 21.3577 32.9757L26.1413 28.2056C27.4915 26.8593 28.2352 25.0691 28.2352 23.1651C28.2352 21.2612 27.4915 19.471 26.1413 18.1246C24.791 16.7783 22.9956 16.0367 21.0862 16.0367C19.1768 16.0367 17.3814 16.7783 16.0312 18.1246L11.2476 22.8947C10.6784 23.462 9.75592 23.462 9.18702 22.8947C8.61812 22.3272 8.61812 21.4073 9.18702 20.8401L13.9706 16.0703C14.9307 15.1129 16.0511 14.3714 17.3004 13.8661C18.5064 13.3785 19.7802 13.1314 21.0865 13.1314C22.3928 13.1314 23.6666 13.3787 24.8726 13.8661C26.1219 14.3714 27.242 15.1129 28.2024 16.0703C29.1625 17.0277 29.9062 18.1448 30.413 19.3905C30.902 20.593 31.1498 21.8631 31.1498 23.1657C31.1498 24.4683 30.9017 25.7384 30.413 26.9409C29.9065 28.1866 29.1625 29.3037 28.2024 30.2611L23.4188 35.0309C23.1342 35.3147 22.761 35.456 22.388 35.456Z" fill="#5B36C3"></path><path d="M10.6385 7.07749L11.0186 8.81367C11.0945 9.15971 11.3494 9.43921 11.6879 9.54669L13.3857 10.0867C13.7242 10.1941 14.0944 10.1137 14.3573 9.87511L15.675 8.67889C15.9376 8.44033 16.0528 8.08035 15.977 7.73431L15.5969 5.99814C15.521 5.6521 15.2661 5.37259 14.9276 5.26511L13.2297 4.72515C12.8913 4.61767 12.5211 4.69814 12.2582 4.9367L10.9405 6.13291C10.6778 6.37147 10.5626 6.73145 10.6385 7.07749Z" fill="#5B36C3"></path><path d="M114.93 5.67457V3.11863H117.186V0H120.364V3.11863H124.056V5.67457H120.364V12.1669C120.364 12.8146 120.535 13.317 120.877 13.675C121.219 14.0327 121.697 14.2119 122.313 14.2119C123.013 14.2119 123.594 14.0245 124.056 13.6494L124.979 15.9244C124.585 16.2312 124.115 16.4613 123.569 16.6145C123.022 16.7678 122.467 16.8445 121.902 16.8445C120.399 16.8445 119.237 16.4567 118.416 15.6813C117.596 14.9062 117.186 13.7686 117.186 12.269V5.67457H114.93Z" fill="#282828"></path><path d="M43.2321 16.8443C41.7966 16.8443 40.5188 16.542 39.3998 15.9369C38.2803 15.3322 37.4042 14.5056 36.7723 13.4575C36.1398 12.4094 35.8239 11.2041 35.8239 9.84071C35.8239 8.47729 36.1398 7.25066 36.7723 6.21111C37.4042 5.17186 38.2803 4.34955 39.3998 3.74447C40.5188 3.13968 41.7966 2.83714 43.2321 2.83714C44.5478 2.83714 45.7187 3.10982 46.7438 3.65519C47.7693 4.20083 48.5383 4.993 49.0511 6.03227L46.6158 7.46363C46.2057 6.83353 45.7058 6.36068 45.1161 6.04506C44.5267 5.73001 43.8897 5.5722 43.2064 5.5722C42.4202 5.5722 41.7107 5.74707 41.0788 6.09624C40.4463 6.44569 39.951 6.93959 39.592 7.57879C39.2333 8.2177 39.0536 8.97177 39.0536 9.84099C39.0536 10.7102 39.233 11.4686 39.592 12.116C39.951 12.7637 40.4463 13.2622 41.0788 13.6113C41.711 13.9608 42.4202 14.1354 43.2064 14.1354C43.8897 14.1354 44.5267 13.9781 45.1161 13.6625C45.7058 13.3475 46.2057 12.8661 46.6158 12.2184L49.0511 13.6497C48.5383 14.6722 47.7693 15.4604 46.7438 16.014C45.7184 16.5679 44.5478 16.8443 43.2321 16.8443Z" fill="#282828"></path><path fill-rule="evenodd" clip-rule="evenodd" d="M57.9971 16.8443C56.613 16.8443 55.3697 16.542 54.2675 15.9369C53.1651 15.3322 52.2976 14.5016 51.6657 13.4447C51.0332 12.3884 50.7173 11.1871 50.7173 9.84071C50.7173 8.49437 51.0332 7.25066 51.6657 6.21111C52.2976 5.17186 53.1608 4.34955 54.2547 3.74447C55.3483 3.13968 56.5958 2.83714 57.9971 2.83714C59.3984 2.83714 60.6759 3.13997 61.7781 3.74447C62.8805 4.34955 63.7431 5.17186 64.3673 6.21111C64.991 7.25066 65.3029 8.46052 65.3029 9.84071C65.3029 11.2209 64.991 12.4094 64.3673 13.4575C63.7431 14.5056 62.8762 15.3322 61.7655 15.9369C60.6543 16.542 59.3984 16.8443 57.9971 16.8443ZM57.9971 14.1351C58.783 14.1351 59.484 13.9605 60.0993 13.611C60.7147 13.2619 61.1972 12.7592 61.5477 12.1029C61.8978 11.4472 62.0732 10.6932 62.0732 9.84071C62.0732 8.98826 61.8978 8.2177 61.5477 7.5785C61.1972 6.93959 60.7147 6.44541 60.0993 6.09595C59.4842 5.74678 58.7922 5.57192 58.0231 5.57192C57.254 5.57192 56.5619 5.74678 55.9465 6.09595C55.3314 6.44541 54.8444 6.9393 54.4854 7.5785C54.1266 8.21741 53.947 8.97149 53.947 9.84071C53.947 10.7099 54.1264 11.4469 54.4854 12.1029C54.8444 12.7592 55.3314 13.2619 55.9465 13.611C56.5619 13.9605 57.2452 14.1351 57.9971 14.1351Z" fill="#282828"></path><path d="M79.0811 3.65518C78.235 3.22956 77.2568 3.0163 76.1462 3.01627C74.9496 3.01627 73.8943 3.25511 72.9803 3.73195C72.3713 4.04981 71.8629 4.4544 71.455 4.94578V3.19511H68.4046V16.8445H71.5833V9.94335C71.5833 9.02294 71.7413 8.26063 72.0575 7.65555C72.3735 7.05105 72.822 6.59497 73.4032 6.28816C73.9841 5.98136 74.6505 5.82811 75.4028 5.82811C76.445 5.82811 77.2483 6.12637 77.8124 6.72263C78.3761 7.31946 78.6582 8.22225 78.6582 9.43211V16.8445H81.8625V9.02294C81.8625 7.64276 81.6101 6.50966 81.1063 5.62338C80.6018 4.73737 79.9271 4.08141 79.0811 3.65518Z" fill="#282828"></path><path fill-rule="evenodd" clip-rule="evenodd" d="M92.3724 16.8443C90.8511 16.8443 89.5225 16.542 88.3861 15.9369C87.2495 15.3322 86.3695 14.5056 85.7458 13.4575C85.1219 12.4094 84.8102 11.2041 84.8102 9.84071C84.8102 8.47729 85.1133 7.27198 85.7202 6.2239C86.3264 5.17584 87.1597 4.34955 88.2196 3.74447C89.279 3.13968 90.5009 2.83714 91.8853 2.83714C93.1497 2.83714 94.2989 3.10982 95.3332 3.65519C96.3669 4.20083 97.1959 4.98447 97.8198 6.00668C98.4435 7.02916 98.7723 8.2649 98.8068 9.71304L88.2834 11.7072C88.341 11.8442 88.4053 11.9762 88.4762 12.1032C88.8518 12.7765 89.3819 13.2878 90.0654 13.6369C90.7487 13.9864 91.5434 14.161 92.4494 14.161C93.2185 14.161 93.9063 14.0333 94.5131 13.7777C95.1193 13.5221 95.6706 13.1476 96.1665 12.6531L97.8583 14.6469C97.2429 15.3626 96.4696 15.9082 95.5385 16.2827C94.6069 16.6577 93.5515 16.8443 92.3724 16.8443ZM87.9122 9.66214L87.9122 9.67233L95.646 8.21331C95.5683 7.90129 95.4513 7.60884 95.295 7.33596C94.9531 6.7397 94.4917 6.27509 93.9108 5.94298C93.3297 5.61059 92.6547 5.44454 91.8856 5.44454C91.1165 5.44454 90.4071 5.61059 89.8091 5.94298C89.2108 6.27538 88.7451 6.76103 88.4121 7.39993C88.079 8.03885 87.9122 8.79292 87.9122 9.66214Z" fill="#282828"></path><path d="M104.305 15.9369C105.424 16.542 106.702 16.8443 108.137 16.8443C109.453 16.8443 110.624 16.5679 111.649 16.014C112.674 15.4604 113.443 14.6722 113.956 13.6497L111.521 12.2184C111.111 12.8661 110.611 13.3475 110.021 13.6625C109.432 13.9781 108.795 14.1354 108.112 14.1354C107.325 14.1354 106.616 13.9608 105.984 13.6113C105.351 13.2622 104.856 12.7637 104.497 12.116C104.138 11.4686 103.959 10.7102 103.959 9.84099C103.959 8.97177 104.138 8.2177 104.497 7.57879C104.856 6.93959 105.351 6.44569 105.984 6.09624C106.616 5.74707 107.325 5.5722 108.112 5.5722C108.795 5.5722 109.432 5.73001 110.021 6.04506C110.611 6.36068 111.111 6.83353 111.521 7.46363L113.956 6.03227C113.443 4.993 112.674 4.20083 111.649 3.65519C110.624 3.10982 109.453 2.83714 108.137 2.83714C106.702 2.83714 105.424 3.13968 104.305 3.74447C103.185 4.34955 102.309 5.17186 101.677 6.21111C101.045 7.25066 100.729 8.47729 100.729 9.84071C100.729 11.2041 101.045 12.4094 101.677 13.4575C102.309 14.5056 103.185 15.3322 104.305 15.9369Z" fill="#282828"></path><path fill-rule="evenodd" clip-rule="evenodd" d="M129.849 15.9753C130.891 16.5548 132.07 16.8443 133.387 16.8443C134.583 16.8443 135.63 16.5929 136.527 16.0902C137.072 15.7849 137.546 15.3805 137.949 14.8769V16.6654H141V3.016H137.796V4.66769C137.412 4.22809 136.972 3.86925 136.476 3.59121C135.579 3.08878 134.549 2.83714 133.387 2.83714C132.07 2.83714 130.892 3.12688 129.849 3.70608C128.807 4.28556 127.986 5.10361 127.388 6.15993C126.79 7.21683 126.491 8.42612 126.491 9.84071C126.491 11.2553 126.79 12.4862 127.388 13.5343C127.986 14.5823 128.807 15.3961 129.849 15.9753ZM135.848 13.611C135.232 13.9605 134.54 14.1351 133.771 14.1351C133.019 14.1351 132.336 13.9605 131.721 13.611C131.105 13.2619 130.618 12.7592 130.259 12.1029C129.9 11.4469 129.721 10.7099 129.721 9.84071C129.721 8.97149 129.901 8.21741 130.259 7.5785C130.618 6.9393 131.105 6.44541 131.721 6.09595C132.336 5.74678 133.002 5.57192 133.771 5.57192C134.541 5.57192 135.232 5.74678 135.848 6.09595C136.463 6.44541 136.95 6.93959 137.309 7.5785C137.668 8.2177 137.847 8.98826 137.847 9.84071C137.847 10.6932 137.668 11.4472 137.309 12.1029C136.95 12.7592 136.463 13.2619 135.848 13.611Z" fill="#282828"></path><path d="M71.8072 26.9611V25.4529H74.2168V22.4878H76.0367V25.4529H80.1384V26.9611H76.0367V34.9868C76.0367 35.7708 76.2374 36.3758 76.6392 36.8015C77.0404 37.2277 77.6173 37.4404 78.3696 37.4404C79.1726 37.4404 79.8393 37.2104 80.3691 36.7503L81.0099 38.054C80.6511 38.3779 80.2191 38.6164 79.7152 38.7697C79.2111 38.923 78.6941 38.9997 78.1645 38.9997C76.8996 38.9997 75.9255 38.6594 75.2422 37.9775C74.5584 37.2962 74.2168 36.3332 74.2168 35.0892V26.9611H71.8072Z" fill="#282828"></path><path d="M40.8926 39C39.7813 39 38.7305 38.8428 37.7396 38.5271C36.7484 38.2121 35.9707 37.8157 35.407 37.3386L36.2271 35.9072C36.7738 36.3161 37.4744 36.6701 38.3293 36.9681C39.1836 37.2664 40.0808 37.4154 41.0206 37.4154C42.3024 37.4154 43.2252 37.2152 43.7893 36.8146C44.3533 36.4145 44.6351 35.8816 44.6351 35.2171C44.6351 34.7232 44.4768 34.3354 44.1608 34.0542C43.8443 33.773 43.4303 33.5603 42.9175 33.4153C42.4048 33.2708 41.8322 33.1469 41.2 33.0448C40.5675 32.9424 39.9396 32.8236 39.316 32.6871C38.6917 32.5509 38.124 32.3507 37.6113 32.0863C37.0985 31.8224 36.6839 31.4602 36.368 31.0001C36.0517 30.54 35.8937 29.9264 35.8937 29.1599C35.8937 28.3933 36.0988 27.7711 36.5088 27.1917C36.9189 26.6125 37.5214 26.1564 38.3162 25.8243C39.1109 25.4919 40.0805 25.3258 41.2257 25.3258C42.0974 25.3258 42.9689 25.441 43.8403 25.671C44.7118 25.901 45.4295 26.2039 45.9936 26.5783L45.1988 28.0353C44.6006 27.6264 43.9595 27.3324 43.2763 27.1536C42.5925 26.9747 41.9089 26.8851 41.2254 26.8851C40.0118 26.8851 39.1192 27.0941 38.5466 27.5113C37.9737 27.929 37.688 28.4615 37.688 29.1087C37.688 29.6199 37.8457 30.0205 38.1622 30.31C38.4782 30.6 38.8968 30.8255 39.4183 30.9873C39.9396 31.1494 40.5119 31.2813 41.1359 31.3834C41.7595 31.4858 42.3831 31.6094 43.0071 31.7539C43.6307 31.8989 44.203 32.0951 44.7246 32.3419C45.2459 32.589 45.6642 32.9384 45.9807 33.39C46.2967 33.8418 46.455 34.4341 46.455 35.1665C46.455 35.9505 46.2371 36.6278 45.8011 37.1987C45.3654 37.7699 44.7329 38.2127 43.9042 38.5277C43.0749 38.8433 42.072 39 40.8926 39Z" fill="#282828"></path><path d="M55.3503 39C54.2051 39 53.2056 38.787 52.3509 38.3611C51.496 37.9354 50.8339 37.2962 50.3642 36.4441C49.894 35.5922 49.6593 34.527 49.6593 33.249V25.4529H51.4792V33.0445C51.4792 34.4759 51.8337 35.5538 52.5431 36.278C53.252 37.0025 54.2478 37.3642 55.5296 37.3642C56.4692 37.3642 57.2854 37.1725 57.9777 36.789C58.6698 36.4057 59.1994 35.8475 59.5669 35.1148C59.9342 34.3823 60.1181 33.5046 60.1181 32.4821V25.4529H61.9383V38.8723H60.1951V36.4185C59.7778 37.1418 59.2096 37.7256 58.4904 38.1692C57.5933 38.7231 56.5462 39 55.3503 39Z" fill="#282828"></path><path d="M67.0136 25.5806V39H68.8338V25.5806H67.0136Z" fill="#282828"></path><path fill-rule="evenodd" clip-rule="evenodd" d="M86.3544 38.1183C87.4223 38.706 88.657 39 90.0586 39C91.118 39 92.0964 38.8135 92.9935 38.4384C93.8909 38.0639 94.638 37.5183 95.2366 36.8026L94.2111 35.6269C93.7152 36.2237 93.113 36.6667 92.4041 36.9562C91.6949 37.2462 90.9212 37.3906 90.0843 37.3906C89.0243 37.3906 88.093 37.1694 87.29 36.7261C86.4867 36.2834 85.8585 35.6616 85.4059 34.8603C85.2355 34.559 85.0971 34.2371 84.9909 33.8947L96.0823 31.7414C96.031 30.4633 95.719 29.343 95.1467 28.3802C94.5738 27.4177 93.8136 26.6676 92.8652 26.1308C91.917 25.594 90.8357 25.3255 89.6226 25.3255C88.3237 25.3255 87.1745 25.6193 86.1747 26.2073C85.1749 26.7953 84.3888 27.6003 83.8164 28.6227C83.2438 29.6449 82.9578 30.821 82.9578 32.15C82.9578 33.479 83.2567 34.6593 83.8549 35.69C84.4529 36.7213 85.2861 37.5302 86.3544 38.1183ZM84.7483 32.5927C84.7339 32.4075 84.7267 32.2176 84.7267 32.0232C84.7267 31.0007 84.9317 30.1022 85.3418 29.3265C85.7518 28.5511 86.3287 27.9506 87.0721 27.5243C87.8155 27.0987 88.7001 26.8854 89.6229 26.8854C90.5457 26.8854 91.3572 27.0987 92.0582 27.5243C92.7585 27.9506 93.3097 28.5173 93.7115 29.2241C93.9801 29.6975 94.1627 30.2035 94.2593 30.7418L84.7483 32.5927Z" fill="#282828"></path></svg>